<svg width="16" height="16" viewBox="0 0 16 16" fill="none" xmlns="http://www.w3.org/2000/svg">
<g clip-path="url(#clip0_651_57)">
<path d="M7.17068 4.11333L11.884 8.82733L7.10201 13.61C6.88066 13.8313 6.58849 13.9678 6.27668 13.9953L6.15934 14H2.67068C2.5048 14 2.34475 13.9388 2.22123 13.828C2.09771 13.7173 2.01941 13.5649 2.00134 13.4L1.99734 13.3267V9.838C1.99742 9.52497 2.10763 9.22194 2.30868 8.982L2.38868 8.89534L7.17068 4.11333ZM9.26401 2.02C9.49995 1.78404 9.81579 1.64512 10.1492 1.63068C10.4825 1.61623 10.8092 1.72732 11.0647 1.942L11.1493 2.02L13.978 4.84867C14.2138 5.08457 14.3526 5.40028 14.367 5.7335C14.3815 6.06672 14.2705 6.39325 14.056 6.64867L13.978 6.734L12.8273 7.88467L8.11401 3.17067L9.26401 2.02Z" fill="#323749"/>
</g>
<defs>
<clipPath id="clip0_651_57">
<rect width="16" height="16" fill="white"/>
</clipPath>
</defs>
</svg>
