<svg width="14" height="14" viewBox="0 0 14 14" fill="none" xmlns="http://www.w3.org/2000/svg">
<path d="M7.00001 13.6667C3.32668 13.6667 0.333344 10.6733 0.333344 7.00001C0.333344 3.32668 3.32668 0.333344 7.00001 0.333344C10.6733 0.333344 13.6667 3.02668 13.6667 6.33334C13.6667 8.54001 11.8733 10.3333 9.66668 10.3333H8.48668C8.30001 10.3333 8.15334 10.48 8.15334 10.6667C8.15334 10.7467 8.18668 10.82 8.24001 10.8867C8.51334 11.2 8.66668 11.5933 8.66668 12C8.66668 12.442 8.49108 12.866 8.17852 13.1785C7.86596 13.4911 7.44204 13.6667 7.00001 13.6667ZM7.00001 1.66668C4.06001 1.66668 1.66668 4.06001 1.66668 7.00001C1.66668 9.94001 4.06001 12.3333 7.00001 12.3333C7.18668 12.3333 7.33334 12.1867 7.33334 12C7.33127 11.9135 7.29814 11.8307 7.24001 11.7667C6.96668 11.46 6.82001 11.0667 6.82001 10.6667C6.82001 10.2246 6.9956 9.80073 7.30816 9.48816C7.62073 9.1756 8.04465 9.00001 8.48668 9.00001H9.66668C11.14 9.00001 12.3333 7.80668 12.3333 6.33334C12.3333 3.76001 9.94001 1.66668 7.00001 1.66668Z" fill="#5B5F6E"/>
</svg>
