<svg width="13" height="14" viewBox="0 0 13 14" fill="none" xmlns="http://www.w3.org/2000/svg">
<path d="M12.75 7C12.75 7.19891 12.671 7.38968 12.5303 7.53033C12.3897 7.67098 12.1989 7.75 12 7.75H7.25V12.5C7.25 12.6989 7.17098 12.8897 7.03033 13.0303C6.88968 13.171 6.69891 13.25 6.5 13.25C6.30109 13.25 6.11032 13.171 5.96967 13.0303C5.82902 12.8897 5.75 12.6989 5.75 12.5V7.75H1C0.801088 7.75 0.610322 7.67098 0.46967 7.53033C0.329018 7.38968 0.25 7.19891 0.25 7C0.25 6.80109 0.329018 6.61032 0.46967 6.46967C0.610322 6.32902 0.801088 6.25 1 6.25H5.75V1.5C5.75 1.30109 5.82902 1.11032 5.96967 0.96967C6.11032 0.829018 6.30109 0.75 6.5 0.75C6.69891 0.75 6.88968 0.829018 7.03033 0.96967C7.17098 1.11032 7.25 1.30109 7.25 1.5V6.25H12C12.1989 6.25 12.3897 6.32902 12.5303 6.46967C12.671 6.61032 12.75 6.80109 12.75 7Z" fill="white"/>
</svg>
